<?xml version="1.0" encoding="UTF-8" standalone="no"?>
<!-- Created with Inkscape (http://www.inkscape.org/) -->

<svg
   width="479.99786mm"
   height="379.99829mm"
   viewBox="0 0 479.99786 379.99829"
   version="1.1"
   id="svg895"
   inkscape:version="1.3 (1:1.3+202307231459+0e150ed6c4)"
   sodipodi:docname="brand.svg"
   xmlns:inkscape="http://www.inkscape.org/namespaces/inkscape"
   xmlns:sodipodi="http://sodipodi.sourceforge.net/DTD/sodipodi-0.dtd"
   xmlns="http://www.w3.org/2000/svg"
   xmlns:svg="http://www.w3.org/2000/svg">
  <sodipodi:namedview
     id="namedview897"
     pagecolor="#505050"
     bordercolor="#eeeeee"
     borderopacity="1"
     inkscape:pageshadow="0"
     inkscape:pageopacity="0"
     inkscape:pagecheckerboard="0"
     inkscape:document-units="mm"
     showgrid="false"
     fit-margin-top="0"
     fit-margin-left="0"
     fit-margin-right="0"
     fit-margin-bottom="0"
     inkscape:zoom="0.13086758"
     inkscape:cx="366.78297"
     inkscape:cy="569.27774"
     inkscape:window-width="1920"
     inkscape:window-height="1020"
     inkscape:window-x="0"
     inkscape:window-y="0"
     inkscape:window-maximized="1"
     inkscape:current-layer="layer1"
     inkscape:showpageshadow="0"
     inkscape:deskcolor="#d1d1d1" />
  <defs
     id="defs892" />
  <g
     inkscape:label="Calque 1"
     inkscape:groupmode="layer"
     id="layer1"
     transform="translate(112.76427,41.320446)">
    <path
       class="st0"
       d="m -24.62733,277.90678 c -32.895922,0 -59.678435,-26.79053 -59.678435,-59.98712 v -70.7617 h 26.491393 v 70.7617 c 0,18.3456 14.846842,33.19659 33.187042,33.19659 18.3401997,0 33.1870419,-14.85099 33.1870419,-33.19659 v -70.7617 H 35.051105 v 70.7617 c 0,33.19659 -26.7825129,59.98712 -59.678435,59.98712 z"
       id="path4-8-1-0-5-4-8-7-5"
       style="fill:#2a2e46;fill-opacity:1;stroke-width:0.264582" />
    <path
       class="st0"
       d="m 124.42323,277.90678 c -12.51792,0 -25.035853,-3.49433 -36.098191,-10.77431 -30.85811,-20.0929 -39.591544,-61.44338 -19.504652,-92.01929 20.086891,-30.86721 61.134003,-39.60319 91.992113,-19.51029 l -14.55572,22.42228 c -18.3402,-11.93927 -43.0849,-6.69763 -55.020597,11.64796 -11.935697,18.3456 -6.695621,43.09753 11.644577,55.0368 18.3402,11.93927 43.08493,6.69763 55.0206,-11.64797 l 22.41582,14.55996 c -13.10015,19.51055 -34.35149,30.28486 -55.89395,30.28486 z"
       id="path10-3-7-17-4-9-0-1-9"
       style="fill:#2a2e46;fill-opacity:1;stroke-width:0.264582" />
    <path
       id="rect12-4-8-72-3-0-6-0"
       style="fill:#2a2e46;stroke-width:0.264582"
       class="st0"
       d="m 123.54992,198.11807 h 59.09619 v 26.49922 h -59.09619 z" />
    <path
       id="polygon6-4-2-0-6-3-9-9"
       class="st0"
       d="m 194.8729,275.8684 h 30.85812 l 43.37603,-75.42078 43.66715,75.42078 h 30.85812 L 269.10705,147.15803 Z"
       style="fill:#2a2e46;fill-opacity:1;stroke-width:0.264583" />
    <path
       id="polygon14-0-0-7-9-4-7-6"
       class="st1"
       d="m 237.6667,312.55959 h 63.17181 L 269.10705,257.814 Z"
       style="fill:#e84e0f;fill-opacity:0.9137255;stroke-width:0.264583" />
    <path
       style="font-weight:bold;font-size:40.7318px;line-height:125%;font-family:'Courier Prime';-inkscape-font-specification:'Courier Prime Bold';letter-spacing:0px;word-spacing:0px;fill:#e84e0f;fill-opacity:1;stroke-width:0.264583px"
       d="m -39.629146,66.048758 h 16.805984 c 2.653639,0 3.715094,1.02357 3.715094,5.85702 0,4.833451 -1.061455,5.800124 -3.715094,5.800124 h -3.184367 l 0.825741,44.183388 h 3.538087 c 2.653638,0 3.715094,1.02357 3.715094,5.85702 0,4.83345 -1.061456,5.80012 -3.715094,5.80012 H -43.69796 c -2.653639,0 -3.715095,-0.96667 -3.715095,-5.80012 0,-4.83345 1.061456,-5.85702 3.715095,-5.85702 h 5.424986 l -0.353719,-33.663521 -8.904367,23.200551 c -1.002453,2.61574 -2.594636,3.63931 -5.955714,3.63931 -3.361375,0 -5.012561,-1.02357 -6.074017,-3.63931 l -8.963073,-23.029976 -0.354016,33.492946 h 5.484286 c 2.653639,0 3.715094,1.02357 3.715094,5.85702 0,4.83345 -1.061455,5.80012 -3.715094,5.80012 h -22.054259 c -2.653639,0 -3.715094,-0.96667 -3.715094,-5.80012 0,-4.83345 1.061455,-5.85702 3.715094,-5.85702 h 3.479084 l 0.884447,-44.183388 h -3.184367 c -2.653638,0 -3.714797,-0.966673 -3.714797,-5.800124 0,-4.83345 1.061159,-5.85702 3.714797,-5.85702 h 16.747278 c 1.592184,0 2.653639,0.398049 3.184367,1.762799 l 10.791267,27.920266 10.732264,-27.920266 c 0.530728,-1.36475 1.592183,-1.762799 3.184367,-1.762799 z M 102.48552,68.38021 c 0,-2.558896 1.59218,-3.582437 6.60474,-3.582437 5.01227,0 6.95817,1.023541 6.95817,3.582437 v 15.580761 c 0,2.558867 -1.59218,3.582437 -5.42499,3.582437 -2.65364,0 -4.0101,-0.625521 -4.83555,-1.819667 -3.59709,-5.458943 -9.435094,-8.813936 -17.219003,-8.813936 -5.837709,0 -9.199083,3.241256 -9.199083,7.562922 0,2.274584 1.592183,3.582437 4.127817,4.549139 6.132722,2.331423 17.926739,2.274555 26.241079,7.164873 5.42528,3.184389 9.43509,8.472751 9.43509,17.798451 0,12.28263 -8.01962,20.81226 -24.471884,20.81226 -6.545741,0 -12.206738,-1.99025 -16.688275,-5.74329 v 2.16085 c 0,2.5589 -1.592183,3.58244 -6.604447,3.58244 -5.012561,0 -6.958464,-1.02354 -6.958464,-3.58244 v -18.99259 c 0,-2.5589 1.592183,-3.58244 5.425283,-3.58244 2.771348,0 4.245526,0.62549 5.13027,2.27456 4.186819,7.67665 9.965525,11.77085 17.926442,11.77085 7.01717,0 10.614255,-3.01379 10.614255,-7.7335 0,-3.18439 -1.82789,-5.11776 -4.717247,-6.48251 -6.250728,-2.95692 -17.396011,-3.12752 -25.415634,-7.16488 -5.484285,-2.786338 -9.553099,-7.335476 -9.553099,-15.865071 0,-12.112061 9.258086,-20.641656 22.939003,-20.641656 6.368733,0 11.793719,2.047082 15.685527,5.686387 z m 34.61472,-2.331452 h 53.18989 c 2.71264,0 3.8331,1.080438 3.8331,3.696173 V 93.74158 c 0,2.558896 -2.18192,3.582437 -6.60445,3.582437 -4.42283,0 -5.779,-1.023541 -5.779,-3.582437 V 78.274555 h -10.67326 v 43.614735 h 12.73717 c 2.65364,0 3.71509,1.02357 3.71509,5.85702 0,4.83345 -1.06145,5.80012 -3.71509,5.80012 h -40.21672 c -2.65363,0 -3.71509,-0.96667 -3.71509,-5.80012 0,-4.83345 1.06146,-5.85702 3.71509,-5.85702 h 12.73717 V 78.274555 H 145.65088 V 93.74158 c 0,2.558896 -2.18191,3.582437 -6.60444,3.582437 -4.42284,0 -5.77901,-1.023541 -5.77901,-3.582437 V 69.744931 c 0,-2.615735 1.12046,-3.696173 3.83281,-3.696173 z m 77.72107,0 h 42.57534 c 2.65364,0 3.7151,1.02357 3.7151,5.85702 0,4.833451 -1.06146,5.800124 -3.7151,5.800124 h -13.91663 v 44.183388 h 15.09609 c 2.65364,0 3.7151,1.02357 3.7151,5.85702 0,4.83345 -1.06146,5.80012 -3.7151,5.80012 h -44.93426 c -2.65364,0 -3.71509,-0.96667 -3.71509,-5.80012 0,-4.83345 1.06145,-5.85702 3.71509,-5.85702 h 15.0961 V 77.705902 h -13.91664 c -2.65363,0 -3.71509,-0.966673 -3.71509,-5.800124 0,-4.83345 1.06146,-5.85702 3.71509,-5.85702 z m 109.62286,2.331452 c 0,-2.558896 2.18192,-3.582437 7.19448,-3.582437 5.01226,0 6.36843,1.023541 6.36843,3.582437 v 21.835801 c 0,2.558867 -2.18191,3.582437 -7.7839,3.582437 -5.602,0 -6.95817,-1.02357 -6.95817,-3.582437 0,-7.335478 -4.24582,-12.510109 -12.38345,-12.510109 -11.02728,0 -16.68828,7.960971 -16.68828,22.063274 0,14.102304 6.25073,22.120114 17.27801,22.120114 7.25318,0 13.2679,-2.04708 20.10835,-5.40208 2.35863,-1.13727 4.65855,-0.2273 6.36844,4.2648 1.71019,4.60601 0.64873,6.8237 -1.8869,8.01784 -8.19663,3.92362 -16.80598,6.0276 -25.17962,6.0276 -19.45992,0 -32.49181,-13.41992 -32.49181,-35.028274 0,-21.608357 13.03189,-34.971403 30.72262,-34.971403 7.31218,0 12.26544,2.78634 15.3318,7.164874 z"
       id="text4038-6-2-1-4-0-6-4-5-7"
       aria-label="M STIC" />
    <path
       id="polygon6-4-7-1-4-7-2-6-3"
       class="st0"
       d="M 21.762158,87.426242 40.213029,119.29412 H 53.251645 L 21.762158,64.909558 -9.6043236,119.29412 H 3.4342922 Z"
       style="fill:#e84e0f;fill-opacity:1;stroke-width:0.264583" />
    <path
       id="polygon14-0-4-7-5-1-2-4-5"
       class="st1"
       d="M 21.762158,111.66551 8.4775304,134.79741 H 35.169791 Z"
       style="fill:#2a2e46;fill-opacity:1;stroke-width:0.264583" />
    <path
       style="font-weight:bold;font-size:11.7096px;line-height:125%;font-family:'Courier Prime';-inkscape-font-specification:'Courier Prime Bold';letter-spacing:0px;word-spacing:0px;fill:#2a2e46;stroke-width:0.264583px"
       d="m -81.149923,-13.879153 h 52.541483 c 2.650123,0 3.744737,1.078079 3.744737,3.688274 V 4.6757508 c 0,2.553428 -2.131613,3.5748389 -7.028581,3.5748389 -4.896957,0 -6.222013,-1.0214109 -6.222013,-3.5748389 V -1.6794854 H -59.430471 V 16.19461 h 17.513831 c 2.592507,0 3.629506,1.305147 3.629506,6.128267 0,4.82312 -1.036999,6.0715 -3.629506,6.0715 h -17.513831 v 13.448147 h 12.501643 c 2.592507,0 3.629516,1.021312 3.629516,5.844531 0,4.823119 -1.037009,5.787763 -3.629516,5.787763 h -34.221095 c -2.592507,0 -3.629516,-0.964644 -3.629516,-5.787763 0,-4.823219 1.037009,-5.844531 3.629516,-5.844531 h 7.316628 V -2.2468587 h -7.316628 c -2.592507,0 -3.629516,-0.9646438 -3.629516,-5.7877636 0,-4.8232187 1.037009,-5.8445307 3.629516,-5.8445307 z m 30.073089,33.989105 c 0,-2.610195 1.613114,-3.688373 6.049187,-3.688373 4.436063,0 6.049177,1.078178 6.049177,3.688373 v 4.425949 c 0,2.610096 -1.613114,3.688274 -6.049177,3.688274 -4.436073,0 -6.049187,-1.078178 -6.049187,-3.688274 z M -5.7943636,-13.879153 H 21.513382 c 3.053391,0 4.954562,1.078079 5.818735,3.688274 l 16.707274,52.033403 h 5.012178 c 2.592507,0 3.629516,0.964644 3.629516,5.787763 0,4.82312 -1.037009,5.844531 -3.629516,5.844531 h -24.42718 c -2.592508,0 -3.629517,-1.021411 -3.629517,-5.844531 0,-4.823119 1.037009,-5.787763 3.629517,-5.787763 h 4.954572 L 26.986454,33.614767 H 6.0159432 l -2.5925074,8.227757 h 4.2632368 c 2.5925074,0 3.6295064,0.964644 3.6295064,5.787763 0,4.82312 -1.036999,5.844531 -3.6295064,5.844531 H -15.588288 c -2.592507,0 -3.629506,-1.021411 -3.629506,-5.844531 0,-4.823119 1.036999,-5.787763 3.629506,-5.787763 h 4.839352 L 3.8267143,-2.2468587 h -9.6210779 c -2.5925174,0 -3.6295163,-1.0214109 -3.6295163,-5.8445307 0,-4.8232186 1.0369989,-5.7877636 3.6295163,-5.7877636 z M 23.702611,21.982473 16.789251,-2.2468587 H 16.443638 L 9.3574524,21.982473 Z m 36.06466,-35.861626 h 30.015474 c 16.592055,0 23.620625,7.2631128 23.620625,18.3279346 0,6.4120034 -3.51429,10.7245164 -8.87214,13.2779444 8.1232,2.156158 13.19299,7.206346 13.19299,16.228445 0,12.937442 -8.92975,19.519647 -24.715237,19.519647 H 59.767271 c -2.592507,0 -3.629516,-0.964644 -3.629516,-5.787763 0,-4.823219 1.037009,-5.844531 3.629516,-5.844531 H 65.93168 V -2.2468587 h -6.164409 c -2.592507,0 -3.629516,-0.9646438 -3.629516,-5.7877636 0,-4.8232187 1.037009,-5.8445307 3.629516,-5.8445307 z m 42.805189,47.266951 c 0,-5.617561 -3.629521,-8.227757 -11.176601,-8.227757 H 80.334494 v 16.11501 h 11.061365 c 7.662301,0 11.176601,-2.72363 11.176601,-7.887253 z M 98.770103,5.5837267 c 0,-5.10695531 -3.168613,-7.2632121 -10.254809,-7.2632121 h -8.1808 V 12.960275 h 8.1808 c 6.91336,0 10.254809,-2.326459 10.254809,-7.3765483 z M 129.93781,-13.879153 h 35.37332 c 2.59251,0 3.62951,1.021312 3.62951,5.8445307 0,4.8231198 -1.037,5.7877636 -3.62951,5.7877636 H 152.75187 V 41.275051 h 20.22156 V 23.571257 c 0,-2.553428 2.13162,-3.574839 7.60469,-3.574839 5.47307,0 6.79814,1.021411 6.79814,3.574839 v 26.215287 c 0,2.610195 -1.09462,3.688274 -3.74474,3.688274 h -53.69371 c -2.59251,0 -3.62952,-0.964644 -3.62952,-5.787763 0,-4.823219 1.03701,-5.844531 3.62952,-5.844531 h 8.41124 V -2.2468587 h -8.41124 c -2.59251,0 -3.62952,-0.9646438 -3.62952,-5.7877636 0,-4.8232187 1.03701,-5.8445307 3.62952,-5.8445307 z m 76.50779,0 h 27.30774 c 3.05339,0 4.95456,1.078079 5.81874,3.688274 l 16.70727,52.033403 h 5.01218 c 2.59251,0 3.62951,0.964644 3.62951,5.787763 0,4.82312 -1.037,5.844531 -3.62951,5.844531 h -24.42718 c -2.59251,0 -3.62951,-1.021411 -3.62951,-5.844531 0,-4.823119 1.037,-5.787763 3.62951,-5.787763 h 4.95457 l -2.59251,-8.227757 H 218.2559 l -2.59251,8.227757 h 4.26324 c 2.59251,0 3.62951,0.964644 3.62951,5.787763 0,4.82312 -1.037,5.844531 -3.62951,5.844531 h -23.27496 c -2.59251,0 -3.62951,-1.021411 -3.62951,-5.844531 0,-4.823119 1.037,-5.787763 3.62951,-5.787763 h 4.83935 l 14.57565,-44.0893827 h -9.62107 c -2.59251,0 -3.62952,-1.0214109 -3.62952,-5.8445307 0,-4.8232186 1.03701,-5.7877636 3.62952,-5.7877636 z m 29.49697,35.861626 -6.91336,-24.2293317 h -0.34571 l -7.08619,24.2293317 z m 36.06464,-35.861626 h 30.01548 c 16.59205,0 23.62063,7.2631128 23.62063,18.3279346 0,6.4120034 -3.51429,10.7245164 -8.87214,13.2779444 8.12319,2.156158 13.19298,7.206346 13.19298,16.228445 0,12.937442 -8.92974,19.519647 -24.71524,19.519647 h -33.24171 c -2.59251,0 -3.62951,-0.964644 -3.62951,-5.787763 0,-4.823219 1.037,-5.844531 3.62951,-5.844531 h 6.16441 V -2.2468587 h -6.16441 c -2.59251,0 -3.62951,-0.9646438 -3.62951,-5.7877636 0,-4.8232187 1.037,-5.8445307 3.62951,-5.8445307 z m 42.80518,47.266951 c 0,-5.617561 -3.6295,-8.227757 -11.17658,-8.227757 h -11.06137 v 16.11501 h 11.06137 c 7.6623,0 11.17658,-2.72363 11.17658,-7.887253 z M 311.01005,5.5837267 c 0,-5.10695531 -3.16862,-7.2632121 -10.25481,-7.2632121 h -8.1808 V 12.960275 h 8.1808 c 6.91335,0 10.25481,-2.326459 10.25481,-7.3765483 z"
       id="text4038-67-5-2-2-7-2-7-0"
       aria-label="FABLAB" />
  </g>
</svg>
