<?xml version="1.0" encoding="UTF-8" standalone="no"?>
<!-- Created with Inkscape (http://www.inkscape.org/) -->

<svg
   width="500mm"
   height="303.17706mm"
   viewBox="0 0 500 303.17706"
   version="1.1"
   id="svg895"
   inkscape:version="1.4.2 (1:1.4.2+202505120737+ebf0e940d0)"
   sodipodi:docname="logoVect.svg"
   xmlns:inkscape="http://www.inkscape.org/namespaces/inkscape"
   xmlns:sodipodi="http://sodipodi.sourceforge.net/DTD/sodipodi-0.dtd"
   xmlns="http://www.w3.org/2000/svg"
   xmlns:svg="http://www.w3.org/2000/svg">
  <sodipodi:namedview
     id="namedview897"
     pagecolor="#ffffff"
     bordercolor="#eeeeee"
     borderopacity="1"
     inkscape:pageshadow="0"
     inkscape:pageopacity="0"
     inkscape:pagecheckerboard="0"
     inkscape:document-units="mm"
     showgrid="false"
     fit-margin-top="0"
     fit-margin-left="0"
     fit-margin-right="0"
     fit-margin-bottom="0"
     inkscape:zoom="0.092537353"
     inkscape:cx="2004.5959"
     inkscape:cy="362.01597"
     inkscape:window-width="1920"
     inkscape:window-height="1018"
     inkscape:window-x="0"
     inkscape:window-y="0"
     inkscape:window-maximized="1"
     inkscape:current-layer="g43204-4-3-1-7-5"
     inkscape:showpageshadow="0"
     inkscape:deskcolor="#d1d1d1" />
  <defs
     id="defs892" />
  <g
     inkscape:label="Calque 1"
     inkscape:groupmode="layer"
     id="layer1"
     transform="translate(122.76533,-47.157988)">
    <g
       id="g168972"
       transform="matrix(9.9999553,0,0,9.9999553,-472.88423,-1388.0478)"
       inkscape:export-filename="F:\ugacloud\fabmstic\comm\logos\LogoFalabMASTIC.png"
       inkscape:export-xdpi="96"
       inkscape:export-ydpi="96"
       style="stroke-width:0.1">
      <g
         id="g166911"
         transform="matrix(0.30913739,0,0,0.30913739,-84.650706,-385.98797)"
         inkscape:export-filename="F:\ugacloud\fabmstic\comm\logos\LogoFalabMASTIC.png"
         inkscape:export-xdpi="96"
         inkscape:export-ydpi="96"
         style="stroke-width:0.1">
        <path
           class="st0"
           d="m 409.64172,1797.8356 c -12.43316,0 -22.55573,-10.1256 -22.55573,-22.6724 v -26.7447 h 10.01254 v 26.7447 c 0,6.9338 5.61143,12.5468 12.54319,12.5468 6.93176,0 12.54319,-5.613 12.54319,-12.5468 v -26.7447 h 10.01254 v 26.7447 c 0,12.5468 -10.12257,22.6724 -22.55573,22.6724 z"
           id="path4-8-1-0-5-4-8-7-5"
           style="fill:#2a2e46;fill-opacity:1;stroke-width:0.1" />
        <path
           class="st0"
           d="m 465.97604,1797.8356 c -4.7312,0 -9.46241,-1.3207 -13.64347,-4.0722 -11.66296,-7.5942 -14.9638,-23.2228 -7.37187,-34.7791 7.59193,-11.6664 23.10587,-14.9682 34.76883,-7.374 l -5.5014,8.4746 c -6.93176,-4.5125 -16.28413,-2.5314 -20.79528,4.4024 -4.51115,6.9338 -2.53064,16.2889 4.40112,20.8014 6.93176,4.5125 16.28414,2.5314 20.79528,-4.4024 l 8.47216,5.503 c -4.95126,7.3741 -12.9833,11.4463 -21.12537,11.4463 z"
           id="path10-3-7-17-4-9-0-1-9"
           style="fill:#2a2e46;fill-opacity:1;stroke-width:0.1" />
        <rect
           x="465.64597"
           y="1767.6791"
           class="st0"
           width="22.335674"
           height="10.015489"
           id="rect12-4-8-72-3-0-6-0"
           style="fill:#2a2e46;fill-opacity:1;stroke-width:0.1" />
        <g
           id="g8-1-9-1-7-5-0-2-6"
           transform="matrix(1.1002796,0,0,1.1006031,385.10549,1746.5475)"
           style="fill:#2a2e46;fill-opacity:1;stroke-width:0.0908731">
          <polygon
             class="st0"
             points="108.3,45.9 123.2,20 138.2,45.9 148.8,45.9 123.2,1.7 97.7,45.9 "
             id="polygon6-4-2-0-6-3-9-9"
             style="fill:#2a2e46;fill-opacity:1;stroke-width:0.0908731" />
        </g>
        <g
           id="g16-5-7-66-7-0-6-2"
           transform="matrix(1.1002796,0,0,1.1006031,385.10549,1746.5475)"
           style="fill:#e84e0f;fill-opacity:1;stroke-width:0.0908731">
          <polygon
             class="st1"
             points="134.1,58.5 123.2,39.7 112.4,58.5 "
             id="polygon14-0-0-7-9-4-7-6"
             style="fill:#e84e0f;fill-opacity:1;stroke-width:0.0908731" />
        </g>
      </g>
      <g
         id="g1"
         transform="matrix(1.4157718,0,0,1.4157718,-19.314361,-62.169475)"
         style="fill:#e84e0f;fill-opacity:1">
        <g
           id="g43204-4-3-1-7-5"
           transform="matrix(0.29111506,0,0,0.29120068,-269.21683,26.315158)"
           style="fill:#e84e0f;fill-opacity:1;stroke-width:0.0908732"
           inkscape:export-filename="F:\ugacloud\fabmstic\comm\logos\LogoFalabMASTIC.png"
           inkscape:export-xdpi="96"
           inkscape:export-ydpi="96">
          <path
             style="font-weight:bold;font-size:40.7318px;line-height:125%;font-family:'Courier Prime';-inkscape-font-specification:'Courier Prime Bold';letter-spacing:0px;word-spacing:0px;stroke-width:0.0908732px"
             d="m 1054.116,416.54097 h 5.6682 c 0.895,0 1.253,0.358 1.253,2.04853 0,1.69053 -0.358,2.02863 -1.253,2.02863 h -1.074 l 0.2785,15.45342 h 1.1933 c 0.895,0 1.253,0.358 1.253,2.04853 0,1.69053 -0.358,2.02863 -1.253,2.02863 h -7.4383 c -0.895,0 -1.253,-0.3381 -1.253,-2.02863 0,-1.69053 0.358,-2.04853 1.253,-2.04853 h 1.8297 l -0.1193,-11.77403 -3.0032,8.11454 c -0.3381,0.91487 -0.8751,1.27287 -2.0087,1.27287 -1.1337,0 -1.6906,-0.358 -2.0486,-1.27287 l -3.023,-8.05488 -0.1194,11.71437 h 1.8497 c 0.895,0 1.253,0.358 1.253,2.04853 0,1.69053 -0.358,2.02863 -1.253,2.02863 h -7.4383 c -0.895,0 -1.253,-0.3381 -1.253,-2.02863 0,-1.69053 0.358,-2.04853 1.253,-2.04853 h 1.1734 l 0.2983,-15.45342 h -1.074 c -0.895,0 -1.2529,-0.3381 -1.2529,-2.02863 0,-1.69053 0.3579,-2.04853 1.2529,-2.04853 h 5.6484 c 0.537,0 0.895,0.13922 1.074,0.61655 l 3.6396,9.76529 3.6197,-9.76529 c 0.179,-0.47733 0.537,-0.61655 1.074,-0.61655 z m 35.1829,0 h 17.9395 c 0.9148,0 1.2927,0.37789 1.2927,1.29276 v 8.39298 c 0,0.89499 -0.7359,1.25298 -2.2275,1.25298 -1.4916,0 -1.9491,-0.35799 -1.9491,-1.25298 v -5.40969 h -3.5998 v 15.25453 h 4.2959 c 0.895,0 1.253,0.358 1.253,2.04853 0,1.69053 -0.358,2.02863 -1.253,2.02863 h -13.564 c -0.895,0 -1.253,-0.3381 -1.253,-2.02863 0,-1.69053 0.358,-2.04853 1.253,-2.04853 h 4.2959 v -15.25453 h -3.5998 v 5.40969 c 0,0.89499 -0.7359,1.25298 -2.2275,1.25298 -1.4916,0 -1.9491,-0.35799 -1.9491,-1.25298 v -8.39298 c 0,-0.91487 0.3779,-1.29276 1.2928,-1.29276 z m 22.4343,11.79393 c 0,-7.55766 4.3954,-12.23147 10.9586,-12.23147 6.5632,0 10.9586,4.67381 10.9586,12.23147 0,7.55766 -4.3954,12.25136 -10.9586,12.25136 -6.5632,0 -10.9586,-4.6937 -10.9586,-12.25136 z m 16.5871,0 c 0,-4.93237 -1.9094,-7.71677 -5.6285,-7.71677 -3.7192,0 -5.6285,2.7844 -5.6285,7.71677 0,4.93237 1.9093,7.73665 5.6285,7.73665 3.7191,0 5.6285,-2.80428 5.6285,-7.73665 z m 22.5735,-10.97849 c 0,-0.89499 0.537,-1.25298 2.2275,-1.25298 1.6905,0 2.3469,0.35799 2.3469,1.25298 v 5.44947 c 0,0.89498 -0.537,1.25298 -1.8298,1.25298 -0.895,0 -1.3524,-0.21878 -1.6309,-0.63644 -1.2132,-1.9093 -3.1821,-3.08273 -5.8074,-3.08273 -1.969,0 -3.1026,1.13365 -3.1026,2.64518 0,0.79555 0.537,1.25298 1.3922,1.59109 2.0684,0.81543 6.0461,0.79554 8.8504,2.50596 1.8297,1.11376 3.1822,2.9634 3.1822,6.22512 0,4.29593 -2.7049,7.27922 -8.2538,7.27922 -2.2076,0 -4.1169,-0.6961 -5.6285,-2.00875 v 0.75577 c 0,0.89499 -0.537,1.25298 -2.2275,1.25298 -1.6905,0 -2.3468,-0.35799 -2.3468,-1.25298 v -6.64278 c 0,-0.89499 0.5369,-1.25298 1.8297,-1.25298 0.9348,0 1.432,0.21877 1.7303,0.79554 1.4121,2.68496 3.3612,4.11693 6.0461,4.11693 2.3668,0 3.58,-1.05409 3.58,-2.70484 0,-1.11376 -0.6166,-1.78997 -1.5911,-2.2673 -2.1082,-1.0342 -5.8671,-1.09387 -8.572,-2.50596 -1.8496,-0.97454 -3.2219,-2.56563 -3.2219,-5.54891 0,-4.23627 3.1225,-7.21955 7.7366,-7.21955 2.148,0 3.9777,0.71598 5.2904,1.98885 z"
             id="text4038-6-2-1-4-0-6-4-5-7"
             transform="scale(1.0184883,0.98184731)"
             aria-label="M TOS" />
          <g
             id="g8-1-9-7-6-1-5-1-6-4"
             transform="matrix(0.42253521,0,0,0.42253521,1042.6369,407.87012)"
             style="fill:#e84e0f;fill-opacity:1;stroke-width:0.215066">
            <path
               id="polygon6-4-7-1-4-7-2-6-3"
               class="st0"
               d="m 97.7,45.9 h 10.6 l 14.9,-25.9 15,25.9 h 10.6 L 123.2,1.7 Z" />
          </g>
          <g
             id="g16-5-7-6-2-7-9-9-1"
             transform="matrix(0.42253521,0,0,0.42253521,1042.6369,407.87012)"
             style="fill:#2a2e46;fill-opacity:1;stroke-width:0.215066">
            <path
               id="polygon14-0-4-7-5-1-2-4-5"
               class="st1"
               d="m 112.4,58.5 h 21.7 L 123.2,39.7 Z" />
          </g>
        </g>
      </g>
    </g>
  </g>
</svg>
